<svg xmlns="http://www.w3.org/2000/svg" xmlns:xlink="http://www.w3.org/1999/xlink" width="400" zoomAndPan="magnify" viewBox="0 0 300 149.999998" height="200" preserveAspectRatio="xMidYMid meet" version="1.0"><defs><g/><clipPath id="4db6759ef2"><path d="M 30 50 L 37 50 L 37 57 L 30 57 Z M 30 50 " clip-rule="nonzero"/></clipPath><clipPath id="e747799902"><path d="M 34.945312 49.90625 L 37.34375 53.21875 L 32.144531 56.988281 L 29.746094 53.675781 Z M 34.945312 49.90625 " clip-rule="nonzero"/></clipPath><clipPath id="d3e88c8d4e"><path d="M 36.144531 51.5625 C 36.808594 52.476562 36.601562 53.753906 35.6875 54.417969 L 33.800781 55.785156 C 32.886719 56.449219 31.609375 56.246094 30.945312 55.332031 C 30.285156 54.417969 30.488281 53.136719 31.402344 52.476562 L 33.289062 51.109375 C 34.203125 50.445312 35.480469 50.648438 36.144531 51.5625 Z M 36.144531 51.5625 " clip-rule="nonzero"/></clipPath><clipPath id="819b7feb11"><path d="M 0.28125 0.398438 L 7 0.398438 L 7 6.640625 L 0.28125 6.640625 Z M 0.28125 0.398438 " clip-rule="nonzero"/></clipPath><clipPath id="556857b888"><path d="M 4.945312 -0.09375 L 7.34375 3.21875 L 2.144531 6.988281 L -0.253906 3.675781 Z M 4.945312 -0.09375 " clip-rule="nonzero"/></clipPath><clipPath id="8aa3031cd4"><path d="M 6.144531 1.5625 C 6.808594 2.476562 6.601562 3.753906 5.6875 4.417969 L 3.800781 5.785156 C 2.886719 6.449219 1.609375 6.246094 0.945312 5.332031 C 0.285156 4.417969 0.488281 3.136719 1.402344 2.476562 L 3.289062 1.109375 C 4.203125 0.445312 5.480469 0.648438 6.144531 1.5625 Z M 6.144531 1.5625 " clip-rule="nonzero"/></clipPath><clipPath id="61e8395975"><rect x="0" width="7" y="0" height="7"/></clipPath><clipPath id="35f5378274"><path d="M 0.542969 0.117188 L 90 0.117188 L 90 89.363281 L 0.542969 89.363281 Z M 0.542969 0.117188 " clip-rule="nonzero"/></clipPath><clipPath id="28d57bf90d"><path d="M 19.292969 0.117188 L 71.25 0.117188 C 76.222656 0.117188 80.992188 2.089844 84.507812 5.609375 C 88.023438 9.125 90 13.894531 90 18.867188 L 90 70.613281 C 90 75.585938 88.023438 80.355469 84.507812 83.871094 C 80.992188 87.390625 76.222656 89.363281 71.25 89.363281 L 19.292969 89.363281 C 14.320312 89.363281 9.550781 87.390625 6.035156 83.871094 C 2.515625 80.355469 0.542969 75.585938 0.542969 70.613281 L 0.542969 18.867188 C 0.542969 13.894531 2.515625 9.125 6.035156 5.609375 C 9.550781 2.089844 14.320312 0.117188 19.292969 0.117188 Z M 19.292969 0.117188 " clip-rule="nonzero"/></clipPath><clipPath id="e0e89ed8d3"><path d="M 0.542969 0.117188 L 90 0.117188 L 90 89.363281 L 0.542969 89.363281 Z M 0.542969 0.117188 " clip-rule="nonzero"/></clipPath><clipPath id="1e50e40e85"><path d="M 19.292969 0.117188 L 71.25 0.117188 C 76.222656 0.117188 80.992188 2.089844 84.507812 5.609375 C 88.023438 9.125 90 13.894531 90 18.867188 L 90 70.613281 C 90 75.585938 88.023438 80.355469 84.507812 83.871094 C 80.992188 87.390625 76.222656 89.363281 71.25 89.363281 L 19.292969 89.363281 C 14.320312 89.363281 9.550781 87.390625 6.035156 83.871094 C 2.515625 80.355469 0.542969 75.585938 0.542969 70.613281 L 0.542969 18.867188 C 0.542969 13.894531 2.515625 9.125 6.035156 5.609375 C 9.550781 2.089844 14.320312 0.117188 19.292969 0.117188 Z M 19.292969 0.117188 " clip-rule="nonzero"/></clipPath><clipPath id="fe60158c67"><rect x="0" width="90" y="0" height="90"/></clipPath><clipPath id="9c1754b8ac"><path d="M 31 47 L 58 47 L 58 74 L 31 74 Z M 31 47 " clip-rule="nonzero"/></clipPath><clipPath id="1c18e4782d"><path d="M 59.765625 72.15625 L 34.589844 75.792969 L 30.769531 49.339844 L 55.945312 45.703125 Z M 59.765625 72.15625 " clip-rule="nonzero"/></clipPath><clipPath id="998145b34e"><path d="M 31.878906 57.03125 C 31.265625 52.78125 36.40625 48.527344 43.355469 47.523438 C 50.308594 46.519531 56.441406 49.148438 57.054688 53.394531 C 57.667969 57.640625 47.175781 73.976562 47.175781 73.976562 C 47.175781 73.976562 32.492188 61.277344 31.878906 57.03125 Z M 31.878906 57.03125 " clip-rule="nonzero"/></clipPath><clipPath id="7cf008ad88"><path d="M 0.238281 0 L 26.878906 0 L 26.878906 27 L 0.238281 27 Z M 0.238281 0 " clip-rule="nonzero"/></clipPath><clipPath id="f70215b0b7"><path d="M 28.765625 25.15625 L 3.589844 28.792969 L -0.230469 2.339844 L 24.945312 -1.296875 Z M 28.765625 25.15625 " clip-rule="nonzero"/></clipPath><clipPath id="b14f97ec42"><path d="M 0.878906 10.03125 C 0.265625 5.78125 5.40625 1.527344 12.355469 0.523438 C 19.308594 -0.480469 25.441406 2.148438 26.054688 6.394531 C 26.667969 10.640625 16.175781 26.976562 16.175781 26.976562 C 16.175781 26.976562 1.492188 14.277344 0.878906 10.03125 Z M 0.878906 10.03125 " clip-rule="nonzero"/></clipPath><clipPath id="eaecdb2ea4"><rect x="0" width="27" y="0" height="27"/></clipPath><clipPath id="dc01b3e4c7"><path d="M 31 24 L 52 24 L 52 41 L 31 41 Z M 31 24 " clip-rule="nonzero"/></clipPath><clipPath id="15a7b820bd"><path d="M 30.472656 38.363281 L 33.386719 23.195312 L 53.292969 27.019531 L 50.382812 42.1875 Z M 30.472656 38.363281 " clip-rule="nonzero"/></clipPath><clipPath id="a368f9a141"><path d="M 31.929688 30.78125 C 31.125 34.96875 34.929688 39.21875 40.425781 40.273438 C 45.921875 41.332031 51.03125 38.789062 51.835938 34.601562 C 52.640625 30.414062 48.835938 26.164062 43.339844 25.105469 C 37.839844 24.050781 32.734375 26.589844 31.929688 30.78125 Z M 31.929688 30.78125 " clip-rule="nonzero"/></clipPath><clipPath id="0195f4c098"><path d="M 0 0 L 21 0 L 21 17 L 0 17 Z M 0 0 " clip-rule="nonzero"/></clipPath><clipPath id="653ce0e893"><path d="M -0.527344 14.363281 L 2.386719 -0.804688 L 22.292969 3.019531 L 19.382812 18.1875 Z M -0.527344 14.363281 " clip-rule="nonzero"/></clipPath><clipPath id="a9a194d5c3"><path d="M 0.929688 6.78125 C 0.125 10.96875 3.929688 15.21875 9.425781 16.273438 C 14.921875 17.332031 20.03125 14.789062 20.835938 10.601562 C 21.640625 6.414062 17.835938 2.164062 12.339844 1.105469 C 6.839844 0.0507812 1.734375 2.589844 0.929688 6.78125 Z M 0.929688 6.78125 " clip-rule="nonzero"/></clipPath><clipPath id="1c28257633"><rect x="0" width="21" y="0" height="17"/></clipPath><clipPath id="a9356a3675"><path d="M 32 26 L 66 26 L 66 64 L 32 64 Z M 32 26 " clip-rule="nonzero"/></clipPath><clipPath id="e19484c39a"><path d="M 26.230469 34.898438 L 52.136719 20.175781 L 71.6875 54.582031 L 45.78125 69.300781 Z M 26.230469 34.898438 " clip-rule="nonzero"/></clipPath><clipPath id="d48e00106f"><path d="M 39.183594 27.539062 C 32.03125 31.601562 30.609375 42.597656 36.007812 52.101562 C 41.40625 61.601562 51.582031 66.007812 58.734375 61.941406 C 65.886719 57.878906 67.3125 46.878906 61.914062 37.378906 C 56.511719 27.878906 46.339844 23.472656 39.183594 27.539062 Z M 39.183594 27.539062 " clip-rule="nonzero"/></clipPath><clipPath id="b8d49d202f"><path d="M 0 0 L 34 0 L 34 38 L 0 38 Z M 0 0 " clip-rule="nonzero"/></clipPath><clipPath id="c6fbf357de"><path d="M -5.769531 8.898438 L 20.136719 -5.824219 L 39.6875 28.582031 L 13.78125 43.300781 Z M -5.769531 8.898438 " clip-rule="nonzero"/></clipPath><clipPath id="3271c24ceb"><path d="M 7.183594 1.539062 C 0.03125 5.601562 -1.390625 16.597656 4.007812 26.101562 C 9.40625 35.601562 19.582031 40.007812 26.734375 35.941406 C 33.886719 31.878906 35.3125 20.878906 29.914062 11.378906 C 24.511719 1.878906 14.339844 -2.527344 7.183594 1.539062 Z M 7.183594 1.539062 " clip-rule="nonzero"/></clipPath><clipPath id="87aec3e7e1"><rect x="0" width="34" y="0" height="38"/></clipPath><clipPath id="e43f811407"><path d="M 25 30 L 53 30 L 53 65 L 25 65 Z M 25 30 " clip-rule="nonzero"/></clipPath><clipPath id="6b1ce53983"><path d="M 19.78125 37.53125 L 42.121094 26.105469 L 58.1875 57.519531 L 35.847656 68.945312 Z M 19.78125 37.53125 " clip-rule="nonzero"/></clipPath><clipPath id="605309639c"><path d="M 30.949219 31.816406 C 24.78125 34.972656 23.371094 44.546875 27.796875 53.203125 C 32.226562 61.859375 40.816406 66.320312 46.984375 63.167969 C 53.152344 60.011719 54.5625 50.4375 50.136719 41.78125 C 45.710938 33.125 37.121094 28.664062 30.949219 31.816406 Z M 30.949219 31.816406 " clip-rule="nonzero"/></clipPath><clipPath id="5da9b7c654"><path d="M 0 0 L 28 0 L 28 35 L 0 35 Z M 0 0 " clip-rule="nonzero"/></clipPath><clipPath id="623bd295fb"><path d="M -5.21875 7.53125 L 17.121094 -3.894531 L 33.1875 27.519531 L 10.847656 38.945312 Z M -5.21875 7.53125 " clip-rule="nonzero"/></clipPath><clipPath id="6995085379"><path d="M 5.949219 1.816406 C -0.21875 4.972656 -1.628906 14.546875 2.796875 23.203125 C 7.226562 31.859375 15.816406 36.320312 21.984375 33.167969 C 28.152344 30.011719 29.5625 20.4375 25.136719 11.78125 C 20.710938 3.125 12.121094 -1.335938 5.949219 1.816406 Z M 5.949219 1.816406 " clip-rule="nonzero"/></clipPath><clipPath id="1192f305a9"><rect x="0" width="28" y="0" height="35"/></clipPath><clipPath id="399493207f"><path d="M 25 24 L 45 24 L 45 48 L 25 48 Z M 25 24 " clip-rule="nonzero"/></clipPath><clipPath id="95b44b12b1"><path d="M 36.226562 21.3125 L 48.914062 30.511719 L 33.785156 51.378906 L 21.097656 42.179688 Z M 36.226562 21.3125 " clip-rule="nonzero"/></clipPath><clipPath id="1cba02214c"><path d="M 42.570312 25.914062 C 39.066406 23.371094 32.847656 25.972656 28.679688 31.71875 C 24.511719 37.46875 23.972656 44.1875 27.476562 46.730469 C 30.980469 49.269531 37.199219 46.667969 41.367188 40.921875 C 45.535156 35.171875 46.074219 28.453125 42.570312 25.914062 Z M 42.570312 25.914062 " clip-rule="nonzero"/></clipPath><clipPath id="400abee7fa"><path d="M 0 0 L 20 0 L 20 24 L 0 24 Z M 0 0 " clip-rule="nonzero"/></clipPath><clipPath id="c854e9b87b"><path d="M 11.226562 -2.6875 L 23.914062 6.511719 L 8.785156 27.378906 L -3.902344 18.179688 Z M 11.226562 -2.6875 " clip-rule="nonzero"/></clipPath><clipPath id="ff03c1b1bd"><path d="M 17.570312 1.914062 C 14.066406 -0.628906 7.847656 1.972656 3.679688 7.71875 C -0.488281 13.46875 -1.027344 20.1875 2.476562 22.730469 C 5.980469 25.269531 12.199219 22.667969 16.367188 16.921875 C 20.535156 11.171875 21.074219 4.453125 17.570312 1.914062 Z M 17.570312 1.914062 " clip-rule="nonzero"/></clipPath><clipPath id="fe62ddeb7f"><rect x="0" width="20" y="0" height="24"/></clipPath><clipPath id="0bbfeaf7a4"><path d="M 37 47 L 63 47 L 63 74 L 37 74 Z M 37 47 " clip-rule="nonzero"/></clipPath><clipPath id="3c51e18c8c"><path d="M 59.703125 75.699219 L 34.507812 72.179688 L 38.210938 45.707031 L 63.402344 49.230469 Z M 59.703125 75.699219 " clip-rule="nonzero"/></clipPath><clipPath id="b582b6bd7e"><path d="M 37.132812 53.402344 C 37.730469 49.152344 43.851562 46.496094 50.804688 47.46875 C 57.761719 48.441406 62.921875 52.675781 62.328125 56.925781 C 61.734375 61.175781 47.105469 73.9375 47.105469 73.9375 C 47.105469 73.9375 36.539062 57.652344 37.132812 53.402344 Z M 37.132812 53.402344 " clip-rule="nonzero"/></clipPath><clipPath id="73031a905f"><path d="M 0 0 L 26 0 L 26 27 L 0 27 Z M 0 0 " clip-rule="nonzero"/></clipPath><clipPath id="c942dfba24"><path d="M 22.703125 28.699219 L -2.492188 25.179688 L 1.210938 -1.292969 L 26.402344 2.230469 Z M 22.703125 28.699219 " clip-rule="nonzero"/></clipPath><clipPath id="19e2fe2913"><path d="M 0.132812 6.402344 C 0.730469 2.152344 6.851562 -0.503906 13.804688 0.46875 C 20.761719 1.441406 25.921875 5.675781 25.328125 9.925781 C 24.734375 14.175781 10.105469 26.9375 10.105469 26.9375 C 10.105469 26.9375 -0.460938 10.652344 0.132812 6.402344 Z M 0.132812 6.402344 " clip-rule="nonzero"/></clipPath><clipPath id="c2fefc1bea"><rect x="0" width="26" y="0" height="27"/></clipPath><clipPath id="65c42d4116"><path d="M 56 59 L 61 59 L 61 64 L 56 64 Z M 56 59 " clip-rule="nonzero"/></clipPath><clipPath id="6d9f0cd10e"><path d="M 60.007812 58.949219 L 61.144531 60.035156 L 57.628906 63.730469 L 56.488281 62.644531 Z M 60.007812 58.949219 " clip-rule="nonzero"/></clipPath><clipPath id="4f7af76449"><path d="M 60.578125 59.492188 C 60.890625 59.792969 60.902344 60.289062 60.601562 60.605469 L 58.171875 63.15625 C 57.871094 63.472656 57.375 63.484375 57.058594 63.183594 C 56.746094 62.886719 56.730469 62.386719 57.03125 62.074219 L 59.464844 59.519531 C 59.765625 59.207031 60.261719 59.195312 60.578125 59.492188 Z M 60.578125 59.492188 " clip-rule="nonzero"/></clipPath><clipPath id="3c22113e30"><path d="M 0.679688 0.0390625 L 5 0.0390625 L 5 4.601562 L 0.679688 4.601562 Z M 0.679688 0.0390625 " clip-rule="nonzero"/></clipPath><clipPath id="6e1acdf399"><path d="M 4.007812 -0.0507812 L 5.144531 1.035156 L 1.628906 4.730469 L 0.488281 3.644531 Z M 4.007812 -0.0507812 " clip-rule="nonzero"/></clipPath><clipPath id="2f53893397"><path d="M 4.578125 0.492188 C 4.890625 0.792969 4.902344 1.289062 4.601562 1.605469 L 2.171875 4.15625 C 1.871094 4.472656 1.375 4.484375 1.058594 4.183594 C 0.746094 3.886719 0.730469 3.386719 1.03125 3.074219 L 3.464844 0.519531 C 3.765625 0.207031 4.261719 0.195312 4.578125 0.492188 Z M 4.578125 0.492188 " clip-rule="nonzero"/></clipPath><clipPath id="36061f9a95"><rect x="0" width="5" y="0" height="5"/></clipPath><clipPath id="47e3d16e53"><path d="M 60 57 L 63 57 L 63 61 L 60 61 Z M 60 57 " clip-rule="nonzero"/></clipPath><clipPath id="b14abfd0ee"><path d="M 59.6875 60.21875 L 62.117188 56.875 L 63.222656 57.679688 L 60.792969 61.019531 Z M 59.6875 60.21875 " clip-rule="nonzero"/></clipPath><clipPath id="e7bacce3f5"><path d="M 60.902344 58.546875 C 60.230469 59.46875 59.933594 60.398438 60.242188 60.617188 C 60.546875 60.839844 61.335938 60.273438 62.007812 59.351562 C 62.679688 58.429688 62.972656 57.5 62.667969 57.277344 C 62.363281 57.058594 61.574219 57.625 60.902344 58.546875 Z M 60.902344 58.546875 " clip-rule="nonzero"/></clipPath><clipPath id="dd7c490056"><path d="M 0 0 L 3 0 L 3 3.960938 L 0 3.960938 Z M 0 0 " clip-rule="nonzero"/></clipPath><clipPath id="e5907c1a1e"><path d="M -0.3125 3.21875 L 2.117188 -0.125 L 3.222656 0.679688 L 0.792969 4.019531 Z M -0.3125 3.21875 " clip-rule="nonzero"/></clipPath><clipPath id="66dd2f3332"><path d="M 0.902344 1.546875 C 0.230469 2.46875 -0.0664062 3.398438 0.242188 3.617188 C 0.546875 3.839844 1.335938 3.273438 2.007812 2.351562 C 2.679688 1.429688 2.972656 0.5 2.667969 0.277344 C 2.363281 0.0585938 1.574219 0.625 0.902344 1.546875 Z M 0.902344 1.546875 " clip-rule="nonzero"/></clipPath><clipPath id="5a024d5a44"><rect x="0" width="3" y="0" height="4"/></clipPath><clipPath id="1a410b45b9"><path d="M 59 57 L 65 57 L 65 63 L 59 63 Z M 59 57 " clip-rule="nonzero"/></clipPath><clipPath id="08fd5f90ff"><path d="M 63.664062 56.984375 L 64.710938 57.863281 L 60.355469 63.054688 L 59.308594 62.175781 Z M 63.664062 56.984375 " clip-rule="nonzero"/></clipPath><clipPath id="fd9e16092a"><path d="M 64.1875 57.425781 C 64.324219 57.539062 64.410156 57.707031 64.429688 57.886719 C 64.445312 58.070312 64.386719 58.25 64.269531 58.386719 L 60.796875 62.53125 C 60.679688 62.667969 60.511719 62.757812 60.332031 62.773438 C 60.152344 62.789062 59.972656 62.730469 59.832031 62.617188 C 59.695312 62.5 59.609375 62.332031 59.59375 62.152344 C 59.578125 61.972656 59.632812 61.792969 59.75 61.652344 L 63.222656 57.507812 C 63.339844 57.371094 63.507812 57.28125 63.6875 57.265625 C 63.867188 57.25 64.046875 57.308594 64.1875 57.425781 Z M 64.1875 57.425781 " clip-rule="nonzero"/></clipPath><clipPath id="967edc2fb5"><path d="M 0.558594 0.121094 L 5.601562 0.121094 L 5.601562 5.878906 L 0.558594 5.878906 Z M 0.558594 0.121094 " clip-rule="nonzero"/></clipPath><clipPath id="27015b19ad"><path d="M 4.664062 -0.015625 L 5.710938 0.863281 L 1.355469 6.054688 L 0.308594 5.175781 Z M 4.664062 -0.015625 " clip-rule="nonzero"/></clipPath><clipPath id="1ef7a02c48"><path d="M 5.1875 0.425781 C 5.324219 0.539062 5.410156 0.707031 5.429688 0.886719 C 5.445312 1.070312 5.386719 1.25 5.269531 1.386719 L 1.796875 5.53125 C 1.679688 5.667969 1.511719 5.757812 1.332031 5.773438 C 1.152344 5.789062 0.972656 5.730469 0.832031 5.617188 C 0.695312 5.5 0.609375 5.332031 0.59375 5.152344 C 0.578125 4.972656 0.632812 4.792969 0.75 4.652344 L 4.222656 0.507812 C 4.339844 0.371094 4.507812 0.28125 4.6875 0.265625 C 4.867188 0.25 5.046875 0.308594 5.1875 0.425781 Z M 5.1875 0.425781 " clip-rule="nonzero"/></clipPath><clipPath id="2eb537ed9b"><rect x="0" width="6" y="0" height="6"/></clipPath><clipPath id="9012906357"><path d="M 31 58 L 38 58 L 38 65 L 31 65 Z M 31 58 " clip-rule="nonzero"/></clipPath><clipPath id="4ec66c9d6f"><path d="M 32.027344 57.859375 L 37.984375 63.816406 L 36.738281 65.066406 L 30.777344 59.109375 Z M 32.027344 57.859375 " clip-rule="nonzero"/></clipPath><clipPath id="0de9476891"><path d="M 35.003906 60.835938 C 33.359375 59.191406 31.746094 58.136719 31.402344 58.484375 C 31.054688 58.828125 32.109375 60.441406 33.757812 62.085938 C 35.402344 63.730469 37.015625 64.785156 37.359375 64.441406 C 37.703125 64.097656 36.652344 62.480469 35.003906 60.835938 Z M 35.003906 60.835938 " clip-rule="nonzero"/></clipPath><clipPath id="0c9f4a972b"><path d="M 0 0.078125 L 6.71875 0.078125 L 6.71875 6.800781 L 0 6.800781 Z M 0 0.078125 " clip-rule="nonzero"/></clipPath><clipPath id="bb867a1eeb"><path d="M 1.027344 -0.140625 L 6.984375 5.816406 L 5.738281 7.066406 L -0.222656 1.109375 Z M 1.027344 -0.140625 " clip-rule="nonzero"/></clipPath><clipPath id="a0908d54fe"><path d="M 4.003906 2.835938 C 2.359375 1.191406 0.746094 0.136719 0.402344 0.484375 C 0.0546875 0.828125 1.109375 2.441406 2.757812 4.085938 C 4.402344 5.730469 6.015625 6.785156 6.359375 6.441406 C 6.703125 6.097656 5.652344 4.480469 4.003906 2.835938 Z M 4.003906 2.835938 " clip-rule="nonzero"/></clipPath><clipPath id="98d829ee27"><rect x="0" width="7" y="0" height="7"/></clipPath><clipPath id="6e1bcdb68b"><path d="M 29 58 L 37 58 L 37 66 L 29 66 Z M 29 58 " clip-rule="nonzero"/></clipPath><clipPath id="a49095c151"><path d="M 29.535156 59.199219 L 30.957031 57.867188 L 37.355469 64.6875 L 35.933594 66.019531 Z M 29.535156 59.199219 " clip-rule="nonzero"/></clipPath><clipPath id="4e10a19751"><path d="M 30.246094 58.535156 C 30.433594 58.359375 30.683594 58.261719 30.945312 58.269531 C 31.203125 58.28125 31.445312 58.390625 31.621094 58.578125 L 36.6875 63.972656 C 36.863281 64.164062 36.957031 64.414062 36.949219 64.671875 C 36.941406 64.929688 36.832031 65.175781 36.644531 65.351562 C 36.457031 65.527344 36.203125 65.621094 35.945312 65.613281 C 35.6875 65.605469 35.445312 65.496094 35.265625 65.308594 L 30.203125 59.910156 C 30.027344 59.722656 29.929688 59.472656 29.9375 59.214844 C 29.949219 58.957031 30.058594 58.710938 30.246094 58.535156 Z M 30.246094 58.535156 " clip-rule="nonzero"/></clipPath><clipPath id="0c0148a76f"><path d="M 0.800781 0.078125 L 8 0.078125 L 8 7.761719 L 0.800781 7.761719 Z M 0.800781 0.078125 " clip-rule="nonzero"/></clipPath><clipPath id="cb755ac053"><path d="M 0.535156 1.199219 L 1.957031 -0.132812 L 8.355469 6.6875 L 6.933594 8.019531 Z M 0.535156 1.199219 " clip-rule="nonzero"/></clipPath><clipPath id="19a25e6b41"><path d="M 1.246094 0.535156 C 1.433594 0.359375 1.683594 0.261719 1.945312 0.269531 C 2.203125 0.28125 2.445312 0.390625 2.621094 0.578125 L 7.6875 5.972656 C 7.863281 6.164062 7.957031 6.414062 7.949219 6.671875 C 7.941406 6.929688 7.832031 7.175781 7.644531 7.351562 C 7.457031 7.527344 7.203125 7.621094 6.945312 7.613281 C 6.6875 7.605469 6.445312 7.496094 6.265625 7.308594 L 1.203125 1.910156 C 1.027344 1.722656 0.929688 1.472656 0.9375 1.214844 C 0.949219 0.957031 1.058594 0.710938 1.246094 0.535156 Z M 1.246094 0.535156 " clip-rule="nonzero"/></clipPath><clipPath id="ba5984b427"><rect x="0" width="8" y="0" height="8"/></clipPath><clipPath id="ee4305c600"><path d="M 29 24 L 59 24 L 59 48 L 29 48 Z M 29 24 " clip-rule="nonzero"/></clipPath><clipPath id="d141b35eca"><path d="M 27.148438 43.230469 L 32.941406 21.308594 L 61.199219 28.777344 L 55.40625 50.699219 Z M 27.148438 43.230469 " clip-rule="nonzero"/></clipPath><clipPath id="a068f02a09"><path d="M 30.046875 32.269531 C 28.445312 38.324219 33.460938 44.898438 41.25 46.957031 C 49.035156 49.015625 56.644531 45.777344 58.242188 39.722656 C 59.84375 33.667969 54.828125 27.09375 47.039062 25.035156 C 39.253906 22.976562 31.644531 26.21875 30.046875 32.269531 Z M 30.046875 32.269531 " clip-rule="nonzero"/></clipPath><clipPath id="932bd99711"><path d="M 0 0 L 30 0 L 30 24 L 0 24 Z M 0 0 " clip-rule="nonzero"/></clipPath><clipPath id="94a3f8ba93"><path d="M -1.851562 19.230469 L 3.941406 -2.691406 L 32.199219 4.777344 L 26.40625 26.699219 Z M -1.851562 19.230469 " clip-rule="nonzero"/></clipPath><clipPath id="c6123b99d9"><path d="M 1.046875 8.269531 C -0.554688 14.324219 4.460938 20.898438 12.25 22.957031 C 20.035156 25.015625 27.644531 21.777344 29.242188 15.722656 C 30.84375 9.667969 25.828125 3.09375 18.039062 1.035156 C 10.253906 -1.023438 2.644531 2.21875 1.046875 8.269531 Z M 1.046875 8.269531 " clip-rule="nonzero"/></clipPath><clipPath id="7113a17d49"><rect x="0" width="30" y="0" height="24"/></clipPath><clipPath id="e954ff69db"><path d="M 48 27 L 61 27 L 61 39 L 48 39 Z M 48 27 " clip-rule="nonzero"/></clipPath><clipPath id="157587e35c"><path d="M 47.21875 29.613281 L 51.324219 25.507812 L 61.988281 36.171875 L 57.882812 40.277344 Z M 47.21875 29.613281 " clip-rule="nonzero"/></clipPath><clipPath id="42d011aa3c"><path d="M 49.273438 27.558594 C 48.140625 28.695312 49.605469 31.996094 52.546875 34.941406 C 55.488281 37.882812 58.792969 39.347656 59.929688 38.214844 C 61.0625 37.082031 59.59375 33.777344 56.652344 30.835938 C 53.710938 27.894531 50.40625 26.425781 49.273438 27.558594 Z M 49.273438 27.558594 " clip-rule="nonzero"/></clipPath><clipPath id="1238f74b11"><path d="M 0.0390625 0 L 13 0 L 13 12 L 0.0390625 12 Z M 0.0390625 0 " clip-rule="nonzero"/></clipPath><clipPath id="feb8f62262"><path d="M -0.78125 2.613281 L 3.324219 -1.492188 L 13.988281 9.171875 L 9.882812 13.277344 Z M -0.78125 2.613281 " clip-rule="nonzero"/></clipPath><clipPath id="fc026361d8"><path d="M 1.273438 0.558594 C 0.140625 1.695312 1.605469 4.996094 4.546875 7.941406 C 7.488281 10.882812 10.792969 12.347656 11.929688 11.214844 C 13.0625 10.082031 11.59375 6.777344 8.652344 3.835938 C 5.710938 0.894531 2.40625 -0.574219 1.273438 0.558594 Z M 1.273438 0.558594 " clip-rule="nonzero"/></clipPath><clipPath id="bb78b0be3d"><rect x="0" width="13" y="0" height="12"/></clipPath><clipPath id="628ff0d40f"><path d="M 30.921875 35.265625 L 47.050781 35.265625 L 47.050781 51.328125 L 30.921875 51.328125 Z M 30.921875 35.265625 " clip-rule="nonzero"/></clipPath><clipPath id="816932ef06"><path d="M 38.96875 35.265625 C 34.523438 35.265625 30.921875 38.859375 30.921875 43.296875 C 30.921875 47.734375 34.523438 51.328125 38.96875 51.328125 C 43.410156 51.328125 47.011719 47.734375 47.011719 43.296875 C 47.011719 38.859375 43.410156 35.265625 38.96875 35.265625 Z M 38.96875 35.265625 " clip-rule="nonzero"/></clipPath><clipPath id="1e4e8fe391"><path d="M 0.921875 0.265625 L 17 0.265625 L 17 16.328125 L 0.921875 16.328125 Z M 0.921875 0.265625 " clip-rule="nonzero"/></clipPath><clipPath id="40c861113d"><path d="M 8.96875 0.265625 C 4.523438 0.265625 0.921875 3.859375 0.921875 8.296875 C 0.921875 12.734375 4.523438 16.328125 8.96875 16.328125 C 13.410156 16.328125 17.011719 12.734375 17.011719 8.296875 C 17.011719 3.859375 13.410156 0.265625 8.96875 0.265625 Z M 8.96875 0.265625 " clip-rule="nonzero"/></clipPath><clipPath id="e16662a056"><rect x="0" width="18" y="0" height="17"/></clipPath><clipPath id="39a79dadd3"><path d="M 100 27 L 291.398438 27 L 291.398438 63 L 100 63 Z M 100 27 " clip-rule="nonzero"/></clipPath><clipPath id="91b7874133"><rect x="0" width="192" y="0" height="36"/></clipPath><clipPath id="a0713ec317"><rect x="0" width="292" y="0" height="90"/></clipPath></defs><g transform="matrix(1, 0, 0, 1, 5, 30)"><g clip-path="url(#a0713ec317)"><g clip-path="url(#4db6759ef2)"><g clip-path="url(#e747799902)"><g clip-path="url(#d3e88c8d4e)"><g transform="matrix(1, 0, 0, 1, 30, 50)"><g clip-path="url(#61e8395975)"><g clip-path="url(#819b7feb11)"><g clip-path="url(#556857b888)"><g clip-path="url(#8aa3031cd4)"><path fill="#a8d455" d="M 4.945312 -0.09375 L 7.34375 3.21875 L 2.144531 6.988281 L -0.253906 3.675781 Z M 4.945312 -0.09375 " fill-opacity="1" fill-rule="nonzero"/></g></g></g></g></g></g></g></g><g clip-path="url(#35f5378274)"><g clip-path="url(#28d57bf90d)"><g transform="matrix(1, 0, 0, 1, 0, -0.000000000000010658)"><g clip-path="url(#fe60158c67)"><g clip-path="url(#e0e89ed8d3)"><g clip-path="url(#1e50e40e85)"><path fill="#2a5d1b" d="M 0.542969 0.117188 L 90.140625 0.117188 L 90.140625 89.363281 L 0.542969 89.363281 Z M 0.542969 0.117188 " fill-opacity="1" fill-rule="nonzero"/></g></g></g></g></g></g><g clip-path="url(#9c1754b8ac)"><g clip-path="url(#1c18e4782d)"><g clip-path="url(#998145b34e)"><g transform="matrix(1, 0, 0, 1, 31, 47)"><g clip-path="url(#eaecdb2ea4)"><g clip-path="url(#7cf008ad88)"><g clip-path="url(#f70215b0b7)"><g clip-path="url(#b14f97ec42)"><path fill="#a8d455" d="M 28.765625 25.15625 L 3.589844 28.792969 L -0.230469 2.339844 L 24.945312 -1.296875 Z M 28.765625 25.15625 " fill-opacity="1" fill-rule="nonzero"/></g></g></g></g></g></g></g></g><g clip-path="url(#dc01b3e4c7)"><g clip-path="url(#15a7b820bd)"><g clip-path="url(#a368f9a141)"><g transform="matrix(1, 0, 0, 1, 31, 24)"><g clip-path="url(#1c28257633)"><g clip-path="url(#0195f4c098)"><g clip-path="url(#653ce0e893)"><g clip-path="url(#a9a194d5c3)"><path fill="#a8d455" d="M -0.527344 14.363281 L 2.386719 -0.804688 L 22.292969 3.019531 L 19.382812 18.1875 Z M -0.527344 14.363281 " fill-opacity="1" fill-rule="nonzero"/></g></g></g></g></g></g></g></g><g clip-path="url(#a9356a3675)"><g clip-path="url(#e19484c39a)"><g clip-path="url(#d48e00106f)"><g transform="matrix(1, 0, 0, 1, 32, 26)"><g clip-path="url(#87aec3e7e1)"><g clip-path="url(#b8d49d202f)"><g clip-path="url(#c6fbf357de)"><g clip-path="url(#3271c24ceb)"><path fill="#a8d455" d="M -5.769531 8.898438 L 20.136719 -5.824219 L 39.6875 28.582031 L 13.78125 43.300781 Z M -5.769531 8.898438 " fill-opacity="1" fill-rule="nonzero"/></g></g></g></g></g></g></g></g><g clip-path="url(#e43f811407)"><g clip-path="url(#6b1ce53983)"><g clip-path="url(#605309639c)"><g transform="matrix(1, 0, 0, 1, 25, 30)"><g clip-path="url(#1192f305a9)"><g clip-path="url(#5da9b7c654)"><g clip-path="url(#623bd295fb)"><g clip-path="url(#6995085379)"><path fill="#a8d455" d="M -5.21875 7.53125 L 17.121094 -3.894531 L 33.140625 27.433594 L 10.804688 38.855469 Z M -5.21875 7.53125 " fill-opacity="1" fill-rule="nonzero"/></g></g></g></g></g></g></g></g><g clip-path="url(#399493207f)"><g clip-path="url(#95b44b12b1)"><g clip-path="url(#1cba02214c)"><g transform="matrix(1, 0, 0, 1, 25, 24)"><g clip-path="url(#fe62ddeb7f)"><g clip-path="url(#400abee7fa)"><g clip-path="url(#c854e9b87b)"><g clip-path="url(#ff03c1b1bd)"><path fill="#a8d455" d="M 11.226562 -2.6875 L 23.914062 6.511719 L 8.820312 27.328125 L -3.867188 18.128906 Z M 11.226562 -2.6875 " fill-opacity="1" fill-rule="nonzero"/></g></g></g></g></g></g></g></g><g clip-path="url(#0bbfeaf7a4)"><g clip-path="url(#3c51e18c8c)"><g clip-path="url(#b582b6bd7e)"><g transform="matrix(1, 0, 0, 1, 37, 47)"><g clip-path="url(#c2fefc1bea)"><g clip-path="url(#73031a905f)"><g clip-path="url(#c942dfba24)"><g clip-path="url(#19e2fe2913)"><path fill="#a8d455" d="M 22.703125 28.699219 L -2.492188 25.179688 L 1.210938 -1.292969 L 26.402344 2.230469 Z M 22.703125 28.699219 " fill-opacity="1" fill-rule="nonzero"/></g></g></g></g></g></g></g></g><g clip-path="url(#65c42d4116)"><g clip-path="url(#6d9f0cd10e)"><g clip-path="url(#4f7af76449)"><g transform="matrix(1, 0, 0, 1, 56, 59)"><g clip-path="url(#36061f9a95)"><g clip-path="url(#3c22113e30)"><g clip-path="url(#6e1acdf399)"><g clip-path="url(#2f53893397)"><path fill="#a8d455" d="M 4.007812 -0.0507812 L 5.144531 1.035156 L 1.628906 4.730469 L 0.488281 3.644531 Z M 4.007812 -0.0507812 " fill-opacity="1" fill-rule="nonzero"/></g></g></g></g></g></g></g></g><g clip-path="url(#47e3d16e53)"><g clip-path="url(#b14abfd0ee)"><g clip-path="url(#e7bacce3f5)"><g transform="matrix(1, 0, 0, 1, 60, 57)"><g clip-path="url(#5a024d5a44)"><g clip-path="url(#dd7c490056)"><g clip-path="url(#e5907c1a1e)"><g clip-path="url(#66dd2f3332)"><path fill="#a8d455" d="M -0.3125 3.21875 L 2.113281 -0.121094 L 3.21875 0.683594 L 0.792969 4.019531 Z M -0.3125 3.21875 " fill-opacity="1" fill-rule="nonzero"/></g></g></g></g></g></g></g></g><g clip-path="url(#1a410b45b9)"><g clip-path="url(#08fd5f90ff)"><g clip-path="url(#fd9e16092a)"><g transform="matrix(1, 0, 0, 1, 59, 57)"><g clip-path="url(#2eb537ed9b)"><g clip-path="url(#967edc2fb5)"><g clip-path="url(#27015b19ad)"><g clip-path="url(#1ef7a02c48)"><path fill="#2a5d1b" d="M 4.664062 -0.015625 L 5.710938 0.863281 L 1.355469 6.054688 L 0.308594 5.175781 Z M 4.664062 -0.015625 " fill-opacity="1" fill-rule="nonzero"/></g></g></g></g></g></g></g></g><g clip-path="url(#9012906357)"><g clip-path="url(#4ec66c9d6f)"><g clip-path="url(#0de9476891)"><g transform="matrix(1, 0, 0, 1, 31, 58)"><g clip-path="url(#98d829ee27)"><g clip-path="url(#0c9f4a972b)"><g clip-path="url(#bb867a1eeb)"><g clip-path="url(#a0908d54fe)"><path fill="#a8d455" d="M 1.027344 -0.140625 L 6.984375 5.816406 L 5.738281 7.066406 L -0.222656 1.109375 Z M 1.027344 -0.140625 " fill-opacity="1" fill-rule="nonzero"/></g></g></g></g></g></g></g></g><g clip-path="url(#6e1bcdb68b)"><g clip-path="url(#a49095c151)"><g clip-path="url(#4e10a19751)"><g transform="matrix(1, 0, 0, 1, 29, 58)"><g clip-path="url(#ba5984b427)"><g clip-path="url(#0c0148a76f)"><g clip-path="url(#cb755ac053)"><g clip-path="url(#19a25e6b41)"><path fill="#2a5c1e" d="M 0.535156 1.199219 L 1.957031 -0.132812 L 8.355469 6.6875 L 6.933594 8.019531 Z M 0.535156 1.199219 " fill-opacity="1" fill-rule="nonzero"/></g></g></g></g></g></g></g></g><g clip-path="url(#ee4305c600)"><g clip-path="url(#d141b35eca)"><g clip-path="url(#a068f02a09)"><g transform="matrix(1, 0, 0, 1, 29, 24)"><g clip-path="url(#7113a17d49)"><g clip-path="url(#932bd99711)"><g clip-path="url(#94a3f8ba93)"><g clip-path="url(#c6123b99d9)"><path fill="#a8d455" d="M -1.851562 19.230469 L 3.941406 -2.691406 L 32.113281 4.753906 L 26.320312 26.675781 Z M -1.851562 19.230469 " fill-opacity="1" fill-rule="nonzero"/></g></g></g></g></g></g></g></g><g clip-path="url(#e954ff69db)"><g clip-path="url(#157587e35c)"><g clip-path="url(#42d011aa3c)"><g transform="matrix(1, 0, 0, 1, 48, 27)"><g clip-path="url(#bb78b0be3d)"><g clip-path="url(#1238f74b11)"><g clip-path="url(#feb8f62262)"><g clip-path="url(#fc026361d8)"><path fill="#a8d455" d="M -0.78125 2.613281 L 3.324219 -1.492188 L 13.972656 9.15625 L 9.867188 13.261719 Z M -0.78125 2.613281 " fill-opacity="1" fill-rule="nonzero"/></g></g></g></g></g></g></g></g><g clip-path="url(#628ff0d40f)"><g clip-path="url(#816932ef06)"><g transform="matrix(1, 0, 0, 1, 30, 35)"><g clip-path="url(#e16662a056)"><g clip-path="url(#1e4e8fe391)"><g clip-path="url(#40c861113d)"><path fill="#2a5d1b" d="M 0.921875 0.265625 L 16.988281 0.265625 L 16.988281 16.328125 L 0.921875 16.328125 Z M 0.921875 0.265625 " fill-opacity="1" fill-rule="nonzero"/></g></g></g></g></g></g><g clip-path="url(#39a79dadd3)"><g transform="matrix(1, 0, 0, 1, 100, 27)"><g clip-path="url(#91b7874133)"><g fill="#2a5c1e" fill-opacity="1"><g transform="translate(0.686612, 27.455402)"><g><path d="M 0.59375 -13.59375 L 19.328125 -13.59375 L 19.328125 -9.15625 L 0.59375 -9.15625 Z M 12.5 -20.390625 L 19.328125 -20.390625 L 19.328125 -15.65625 L 15.453125 -15.65625 C 14.660156 -15.675781 14.050781 -15.632812 13.625 -15.53125 C 13.207031 -15.4375 12.914062 -15.238281 12.75 -14.9375 C 12.582031 -14.644531 12.5 -14.195312 12.5 -13.59375 L 12.5 0 L 5.40625 0 L 5.40625 -15.0625 C 5.40625 -16.25 5.625 -17.234375 6.0625 -18.015625 C 6.507812 -18.804688 7.25 -19.398438 8.28125 -19.796875 C 9.320312 -20.191406 10.726562 -20.390625 12.5 -20.390625 Z M 12.5 -20.390625 "/></g></g></g><g fill="#2a5c1e" fill-opacity="1"><g transform="translate(20.600718, 27.455402)"><g><path d="M 15.0625 0.4375 C 11.9375 0.4375 9.332031 0.179688 7.25 -0.328125 C 5.175781 -0.835938 3.617188 -1.65625 2.578125 -2.78125 C 1.546875 -3.90625 1.03125 -5.378906 1.03125 -7.203125 C 1.03125 -9.035156 1.546875 -10.519531 2.578125 -11.65625 C 3.617188 -12.789062 5.175781 -13.617188 7.25 -14.140625 C 9.332031 -14.660156 11.9375 -14.921875 15.0625 -14.921875 C 18.175781 -14.921875 20.757812 -14.660156 22.8125 -14.140625 C 24.875 -13.617188 26.414062 -12.789062 27.4375 -11.65625 C 28.46875 -10.519531 28.984375 -9.035156 28.984375 -7.203125 C 28.984375 -5.378906 28.46875 -3.90625 27.4375 -2.78125 C 26.414062 -1.65625 24.875 -0.835938 22.8125 -0.328125 C 20.757812 0.179688 18.175781 0.4375 15.0625 0.4375 Z M 15.0625 -3.84375 C 16.519531 -3.84375 17.738281 -3.960938 18.71875 -4.203125 C 19.707031 -4.453125 20.457031 -4.828125 20.96875 -5.328125 C 21.488281 -5.835938 21.75 -6.460938 21.75 -7.203125 C 21.75 -7.953125 21.492188 -8.582031 20.984375 -9.09375 C 20.484375 -9.613281 19.738281 -10 18.75 -10.25 C 17.769531 -10.507812 16.539062 -10.640625 15.0625 -10.640625 C 13.601562 -10.640625 12.367188 -10.507812 11.359375 -10.25 C 10.347656 -10 9.578125 -9.617188 9.046875 -9.109375 C 8.523438 -8.609375 8.265625 -7.972656 8.265625 -7.203125 C 8.265625 -6.460938 8.519531 -5.835938 9.03125 -5.328125 C 9.550781 -4.828125 10.316406 -4.453125 11.328125 -4.203125 C 12.347656 -3.960938 13.59375 -3.84375 15.0625 -3.84375 Z M 15.0625 -3.84375 "/></g></g></g><g fill="#2a5c1e" fill-opacity="1"><g transform="translate(50.619608, 27.455402)"><g><path d="M 15.0625 0.4375 C 11.9375 0.4375 9.332031 0.179688 7.25 -0.328125 C 5.175781 -0.835938 3.617188 -1.65625 2.578125 -2.78125 C 1.546875 -3.90625 1.03125 -5.378906 1.03125 -7.203125 C 1.03125 -9.035156 1.546875 -10.519531 2.578125 -11.65625 C 3.617188 -12.789062 5.175781 -13.617188 7.25 -14.140625 C 9.332031 -14.660156 11.9375 -14.921875 15.0625 -14.921875 C 18.175781 -14.921875 20.757812 -14.660156 22.8125 -14.140625 C 24.875 -13.617188 26.414062 -12.789062 27.4375 -11.65625 C 28.46875 -10.519531 28.984375 -9.035156 28.984375 -7.203125 C 28.984375 -5.378906 28.46875 -3.90625 27.4375 -2.78125 C 26.414062 -1.65625 24.875 -0.835938 22.8125 -0.328125 C 20.757812 0.179688 18.175781 0.4375 15.0625 0.4375 Z M 15.0625 -3.84375 C 16.519531 -3.84375 17.738281 -3.960938 18.71875 -4.203125 C 19.707031 -4.453125 20.457031 -4.828125 20.96875 -5.328125 C 21.488281 -5.835938 21.75 -6.460938 21.75 -7.203125 C 21.75 -7.953125 21.492188 -8.582031 20.984375 -9.09375 C 20.484375 -9.613281 19.738281 -10 18.75 -10.25 C 17.769531 -10.507812 16.539062 -10.640625 15.0625 -10.640625 C 13.601562 -10.640625 12.367188 -10.507812 11.359375 -10.25 C 10.347656 -10 9.578125 -9.617188 9.046875 -9.109375 C 8.523438 -8.609375 8.265625 -7.972656 8.265625 -7.203125 C 8.265625 -6.460938 8.519531 -5.835938 9.03125 -5.328125 C 9.550781 -4.828125 10.316406 -4.453125 11.328125 -4.203125 C 12.347656 -3.960938 13.59375 -3.84375 15.0625 -3.84375 Z M 15.0625 -3.84375 "/></g></g></g><g fill="#2a5c1e" fill-opacity="1"><g transform="translate(80.638495, 27.455402)"><g><path d="M 12.0625 0.40625 C 9.925781 0.40625 8.03125 0.109375 6.375 -0.484375 C 4.726562 -1.085938 3.425781 -1.957031 2.46875 -3.09375 C 1.507812 -4.238281 1.03125 -5.617188 1.03125 -7.234375 C 1.03125 -8.929688 1.507812 -10.347656 2.46875 -11.484375 C 3.425781 -12.628906 4.726562 -13.488281 6.375 -14.0625 C 8.03125 -14.632812 9.925781 -14.921875 12.0625 -14.921875 C 13.832031 -14.921875 15.425781 -14.738281 16.84375 -14.375 C 18.257812 -14.007812 19.46875 -13.488281 20.46875 -12.8125 C 21.476562 -12.132812 22.25 -11.320312 22.78125 -10.375 C 23.3125 -9.425781 23.578125 -8.378906 23.578125 -7.234375 C 23.578125 -6.097656 23.3125 -5.0625 22.78125 -4.125 C 22.25 -3.1875 21.476562 -2.375 20.46875 -1.6875 C 19.46875 -1.007812 18.257812 -0.488281 16.84375 -0.125 C 15.425781 0.226562 13.832031 0.40625 12.0625 0.40625 Z M 14.71875 -4.078125 C 16.207031 -4.078125 17.578125 -4.171875 18.828125 -4.359375 C 20.085938 -4.546875 21.09375 -4.863281 21.84375 -5.3125 C 22.601562 -5.769531 22.984375 -6.410156 22.984375 -7.234375 C 22.984375 -8.085938 22.601562 -8.738281 21.84375 -9.1875 C 21.09375 -9.644531 20.085938 -9.960938 18.828125 -10.140625 C 17.578125 -10.316406 16.207031 -10.40625 14.71875 -10.40625 C 12.707031 -10.40625 11.148438 -10.140625 10.046875 -9.609375 C 8.941406 -9.085938 8.390625 -8.296875 8.390625 -7.234375 C 8.390625 -6.546875 8.632812 -5.960938 9.125 -5.484375 C 9.625 -5.015625 10.34375 -4.660156 11.28125 -4.421875 C 12.226562 -4.191406 13.375 -4.078125 14.71875 -4.078125 Z M 22.984375 -20.390625 L 30.078125 -20.390625 L 30.078125 0 L 23.40625 0 C 23.320312 -0.445312 23.226562 -1.175781 23.125 -2.1875 C 23.03125 -3.207031 22.984375 -4.347656 22.984375 -5.609375 Z M 22.984375 -20.390625 "/></g></g></g><g fill="#a8d455" fill-opacity="1"><g transform="translate(113.081801, 27.455402)"><g><path d="M 1.328125 -14.484375 L 8.421875 -14.484375 L 8.421875 0 L 1.328125 0 Z M 16.046875 -9.015625 C 14.765625 -9.015625 13.59375 -8.894531 12.53125 -8.65625 C 11.46875 -8.414062 10.5625 -8.132812 9.8125 -7.8125 C 9.0625 -7.488281 8.5 -7.171875 8.125 -6.859375 L 8.0625 -8.265625 C 8.125 -8.679688 8.28125 -9.171875 8.53125 -9.734375 C 8.789062 -10.296875 9.132812 -10.875 9.5625 -11.46875 C 10 -12.070312 10.53125 -12.632812 11.15625 -13.15625 C 11.789062 -13.6875 12.515625 -14.113281 13.328125 -14.4375 C 14.148438 -14.757812 15.054688 -14.921875 16.046875 -14.921875 Z M 16.046875 -9.015625 "/></g></g></g><g fill="#a8d455" fill-opacity="1"><g transform="translate(129.716285, 27.455402)"><g><path d="M 15.0625 0.4375 C 11.9375 0.4375 9.332031 0.179688 7.25 -0.328125 C 5.175781 -0.835938 3.617188 -1.65625 2.578125 -2.78125 C 1.546875 -3.90625 1.03125 -5.378906 1.03125 -7.203125 C 1.03125 -9.035156 1.546875 -10.519531 2.578125 -11.65625 C 3.617188 -12.789062 5.175781 -13.617188 7.25 -14.140625 C 9.332031 -14.660156 11.9375 -14.921875 15.0625 -14.921875 C 18.175781 -14.921875 20.757812 -14.660156 22.8125 -14.140625 C 24.875 -13.617188 26.414062 -12.789062 27.4375 -11.65625 C 28.46875 -10.519531 28.984375 -9.035156 28.984375 -7.203125 C 28.984375 -5.378906 28.46875 -3.90625 27.4375 -2.78125 C 26.414062 -1.65625 24.875 -0.835938 22.8125 -0.328125 C 20.757812 0.179688 18.175781 0.4375 15.0625 0.4375 Z M 15.0625 -3.84375 C 16.519531 -3.84375 17.738281 -3.960938 18.71875 -4.203125 C 19.707031 -4.453125 20.457031 -4.828125 20.96875 -5.328125 C 21.488281 -5.835938 21.75 -6.460938 21.75 -7.203125 C 21.75 -7.953125 21.492188 -8.582031 20.984375 -9.09375 C 20.484375 -9.613281 19.738281 -10 18.75 -10.25 C 17.769531 -10.507812 16.539062 -10.640625 15.0625 -10.640625 C 13.601562 -10.640625 12.367188 -10.507812 11.359375 -10.25 C 10.347656 -10 9.578125 -9.617188 9.046875 -9.109375 C 8.523438 -8.609375 8.265625 -7.972656 8.265625 -7.203125 C 8.265625 -6.460938 8.519531 -5.835938 9.03125 -5.328125 C 9.550781 -4.828125 10.316406 -4.453125 11.328125 -4.203125 C 12.347656 -3.960938 13.59375 -3.84375 15.0625 -3.84375 Z M 15.0625 -3.84375 "/></g></g></g><g fill="#a8d455" fill-opacity="1"><g transform="translate(159.735173, 27.455402)"><g><path d="M 19.359375 0.4375 C 17.578125 0.4375 15.976562 0.253906 14.5625 -0.109375 C 13.144531 -0.472656 11.929688 -0.992188 10.921875 -1.671875 C 9.921875 -2.347656 9.15625 -3.160156 8.625 -4.109375 C 8.09375 -5.054688 7.828125 -6.097656 7.828125 -7.234375 C 7.828125 -8.378906 8.09375 -9.421875 8.625 -10.359375 C 9.15625 -11.296875 9.921875 -12.101562 10.921875 -12.78125 C 11.929688 -13.457031 13.144531 -13.976562 14.5625 -14.34375 C 15.976562 -14.707031 17.578125 -14.890625 19.359375 -14.890625 C 21.484375 -14.890625 23.375 -14.585938 25.03125 -13.984375 C 26.695312 -13.390625 28.003906 -12.519531 28.953125 -11.375 C 29.898438 -10.226562 30.375 -8.847656 30.375 -7.234375 C 30.375 -5.546875 29.898438 -4.128906 28.953125 -2.984375 C 28.003906 -1.835938 26.695312 -0.976562 25.03125 -0.40625 C 23.375 0.15625 21.484375 0.4375 19.359375 0.4375 Z M 16.6875 -4.078125 C 18.03125 -4.078125 19.175781 -4.191406 20.125 -4.421875 C 21.070312 -4.660156 21.789062 -5.007812 22.28125 -5.46875 C 22.769531 -5.9375 23.015625 -6.523438 23.015625 -7.234375 C 23.015625 -8.285156 22.460938 -9.078125 21.359375 -9.609375 C 20.253906 -10.140625 18.695312 -10.40625 16.6875 -10.40625 C 15.195312 -10.40625 13.828125 -10.316406 12.578125 -10.140625 C 11.328125 -9.960938 10.320312 -9.640625 9.5625 -9.171875 C 8.800781 -8.710938 8.421875 -8.066406 8.421875 -7.234375 C 8.421875 -6.410156 8.800781 -5.765625 9.5625 -5.296875 C 10.320312 -4.835938 11.328125 -4.519531 12.578125 -4.34375 C 13.828125 -4.164062 15.195312 -4.078125 16.6875 -4.078125 Z M 1.328125 -14.484375 L 8 -14.484375 L 8.421875 -8.859375 L 8.421875 5.90625 L 1.328125 5.90625 Z M 1.328125 -14.484375 "/></g></g></g></g></g></g></g></g></svg>